<svg width="70" height="29" viewBox="0 0 70 29" xmlns="http://www.w3.org/2000/svg" xmlns:xlink="http://www.w3.org/1999/xlink"><defs><path id="a" d="M0 28.223h69.085V.05H0z"/></defs><g fill="none" fill-rule="evenodd"><path fill="#0D6B71" d="M35.3.697L.553 2.647l9.66 26.222 33.095-10.395"/><g transform="translate(.554 .646)"><path d="M17.728 12.574c0 .667-.144 1.25-.448 1.757-.296.508-.71.93-1.244 1.27-.532.337-1.175.59-1.928.76-.753.168-1.582.253-2.504.253h-.676v3.38H6.64V8.72h5.04c1.887 0 3.367.322 4.44.955 1.075.642 1.608 1.606 1.608 2.9zm-4.127.05c0-.98-.727-1.47-2.173-1.47h-.525v3.017h.483c.718 0 1.268-.126 1.65-.37.37-.255.566-.643.566-1.176zM28.36 19.976c-.66.127-1.413.186-2.25.186-1.193 0-2.25-.135-3.19-.406-.93-.27-1.724-.66-2.367-1.157-.65-.5-1.142-1.108-1.48-1.827-.338-.718-.508-1.52-.508-2.4 0-.87.178-1.664.542-2.382.363-.718.87-1.335 1.522-1.842.65-.507 1.43-.904 2.342-1.183.905-.278 1.903-.414 2.986-.414.837 0 1.615.027 2.292.17.685.153.693.17 1.243.364l-.008 3.025c-.423-.238-.905-.44-1.43-.6-.524-.162-1.09-.238-1.7-.238-.972 0-1.76.27-2.368.803-.61.532-.913 1.293-.913 2.29 0 .516.093.963.287 1.344.196.387.45.708.77.962.322.253.703.448 1.134.575.432.135.897.194 1.404.194.516 0 1.015-.05 1.514-.16.49-.11 1.015-.27 1.573-.473l.01 2.822c-.686.194-.745.22-1.405.346" fill="#FFF"/><mask id="b" fill="#fff"><use xlink:href="#a"/></mask><path fill="#FFF" mask="url(#b)" d="M31.523 19.984h4.322V8.72h-4.322M36.31 5.197c0 .76-.253 1.352-.752 1.783-.5.43-1.125.65-1.87.65-.735 0-1.36-.21-1.87-.65-.506-.43-.752-1.03-.752-1.783 0-.778.254-1.378.753-1.81.498-.43 1.124-.65 1.868-.65.736 0 1.362.22 1.87.65.5.432.752 1.032.752 1.81"/><path d="M51.543 9.506c0-.828-.16-1.445-.49-1.842-.33-.397-.83-.6-1.497-.6h-.71v5.07h.54c.745 0 1.286-.22 1.633-.65.354-.43.523-1.09.523-1.978m2.546-.084c0 1.512-.415 2.67-1.253 3.49-.837.82-2.004 1.225-3.51 1.225H46.4V5.095h3.14c1.454 0 2.58.372 3.365 1.116.787.744 1.184 1.81 1.184 3.212M61.634 11.39c0 .558-.144 1.057-.432 1.496-.287.44-.693.778-1.234 1.014-.533.245-1.168.364-1.887.364-.6 0-1.107-.043-1.513-.127-.406-.085-.837-.228-1.277-.44v-2.18c.465.237.956.423 1.455.558.508.135.964.203 1.387.203.364 0 .626-.06.795-.186.17-.127.254-.287.254-.482 0-.126-.033-.228-.1-.32-.068-.094-.178-.187-.33-.28-.153-.093-.55-.287-1.2-.583-.593-.27-1.033-.532-1.33-.777-.295-.254-.515-.54-.66-.87-.143-.33-.21-.71-.21-1.158 0-.837.304-1.487.913-1.952.61-.465 1.438-.7 2.504-.7.938 0 1.894.218 2.867.65l-.753 1.884c-.845-.39-1.58-.583-2.19-.583-.32 0-.55.06-.693.17-.144.11-.22.253-.22.414 0 .177.093.338.28.473.185.143.684.397 1.496.77.778.354 1.32.725 1.624 1.13.305.398.457.905.457 1.514M68.95 11.39c0 .558-.144 1.057-.43 1.496-.29.44-.695.778-1.236 1.014-.533.245-1.167.364-1.886.364-.6 0-1.108-.043-1.514-.127-.406-.085-.838-.228-1.277-.44v-2.18c.465.237.955.423 1.454.558.51.135.966.203 1.388.203.364 0 .626-.06.795-.186.17-.127.254-.287.254-.482 0-.126-.034-.228-.1-.32-.07-.094-.18-.187-.33-.28-.153-.093-.55-.287-1.202-.583-.592-.27-1.032-.532-1.328-.777-.296-.254-.516-.54-.66-.87-.144-.33-.21-.71-.21-1.158 0-.837.303-1.487.912-1.952.608-.465 1.437-.7 2.503-.7.94 0 1.894.218 2.867.65l-.753 1.884c-.846-.39-1.58-.583-2.19-.583-.322 0-.55.06-.694.17-.144.11-.22.253-.22.414 0 .177.093.338.28.473.185.143.684.397 1.496.77.778.354 1.32.725 1.623 1.13.313.398.457.905.457 1.514M47.687 16.13c-.22 0-.39.086-.508.246-.12.16-.18.397-.18.685 0 .61.23.913.687.913.194 0 .422-.05.702-.143v.49c-.23.093-.475.143-.754.143-.398 0-.702-.118-.914-.363-.21-.245-.313-.592-.313-1.04 0-.287.05-.532.152-.75.1-.213.253-.382.448-.492.194-.118.423-.17.685-.17.27 0 .533.07.803.196l-.186.473c-.1-.05-.203-.093-.313-.127-.11-.042-.212-.06-.313-.06M49.454 17.052c0 .304.06.54.178.693.118.152.287.237.524.237.465 0 .694-.305.694-.92 0-.618-.23-.93-.694-.93-.228 0-.406.075-.524.236-.12.143-.178.38-.178.684m2.005 0c0 .456-.11.803-.34 1.048-.228.245-.55.363-.964.363-.423 0-.744-.118-.964-.363-.228-.245-.338-.592-.338-1.048 0-.456.11-.803.338-1.048.228-.236.55-.363.973-.363.423 0 .744.12.964.364.22.245.33.592.33 1.048M53.193 18.42l-.66-2.145h-.017c.025.44.034.726.034.88v1.275h-.516v-2.738h.795l.65 2.095h.01l.684-2.095h.795v2.738h-.542v-1.512c0-.077.008-.297.025-.635h-.017l-.71 2.147h-.533v-.01zM56.23 16.976h.194c.177 0 .313-.034.397-.11.086-.067.137-.177.137-.304 0-.135-.034-.237-.11-.304-.077-.068-.195-.102-.347-.102h-.262v.82h-.01zm1.32-.44c0 .296-.094.525-.28.677-.187.152-.45.236-.787.236h-.254v.97h-.576v-2.737h.88c.33 0 .583.068.76.212.162.143.255.363.255.642zM58.065 18.42v-2.737h.583v2.265h1.117v.482h-1.7M60.238 18.42h.584v-2.737h-.584M62.852 17.28c-.186-.59-.288-.93-.313-1.005-.027-.076-.043-.135-.052-.186-.042.16-.16.557-.355 1.182h.72v.008zm.338 1.14l-.203-.65h-.998l-.204.65h-.626l.964-2.754h.71l.974 2.755h-.618zM66.59 18.42h-.736l-1.192-2.07h-.017c.025.364.034.626.034.787v1.293h-.517v-2.738h.736l1.19 2.053h.018c-.017-.355-.025-.608-.025-.752v-1.3h.524v2.728h-.017zM68.34 18.42h-.583v-2.255h-.744v-.482h2.072v.482h-.744" fill="#0D6B71" mask="url(#b)"/></g></g></svg>
