<svg width="50" height="50" viewBox="0 0 50 50" fill="none" xmlns="http://www.w3.org/2000/svg">
<path d="M21.875 30.7937V45.3104C21.875 46.5536 22.3689 47.7459 23.2479 48.625C24.127 49.5041 25.3193 49.9979 26.5625 49.9979H39.0625C40.3057 49.9979 41.498 49.5041 42.3771 48.625C43.2561 47.7459 43.75 46.5536 43.75 45.3104V30.7937C43.75 30.3793 43.5854 29.9819 43.2924 29.6889C42.9993 29.3959 42.6019 29.2312 42.1875 29.2312C41.7731 29.2312 41.3757 29.3959 41.0826 29.6889C40.7896 29.9819 40.625 30.3793 40.625 30.7937V45.3104C40.625 45.7248 40.4604 46.1222 40.1674 46.4153C39.8743 46.7083 39.4769 46.8729 39.0625 46.8729H26.5625C26.1481 46.8729 25.7507 46.7083 25.4576 46.4153C25.1646 46.1222 25 45.7248 25 45.3104V30.7937C25 30.3793 24.8354 29.9819 24.5424 29.6889C24.2493 29.3959 23.8519 29.2312 23.4375 29.2312C23.0231 29.2312 22.6257 29.3959 22.3326 29.6889C22.0396 29.9819 21.875 30.3793 21.875 30.7937ZM49.4833 35.2562L35.9417 23.075C35.081 22.3005 33.9641 21.872 32.8062 21.872C31.6484 21.872 30.5315 22.3005 29.6708 23.075L16.1292 35.2562C15.8209 35.5336 15.6354 35.9221 15.6135 36.3363C15.5916 36.7504 15.7351 37.1563 16.0125 37.4646C16.2899 37.7729 16.6784 37.9584 17.0925 37.9803C17.5066 38.0022 17.9125 37.8586 18.2208 37.5812L31.7625 25.4C32.0492 25.1426 32.4209 25.0003 32.8062 25.0003C33.1916 25.0003 33.5633 25.1426 33.85 25.4L47.3917 37.5812C47.7 37.8586 48.1059 38.0022 48.52 37.9803C48.9341 37.9584 49.3226 37.7729 49.6 37.4646C49.8774 37.1563 50.0209 36.7504 49.999 36.3363C49.9771 35.9221 49.7916 35.5336 49.4833 35.2562ZM17.1875 46.875H4.6875L6.25 48.4375V3.125L6.24792 3.12917L28.0833 12.0104C28.125 12.0271 28.1229 12.025 28.1229 12.0229V17.1875C28.1229 17.6019 28.2875 17.9993 28.5806 18.2924C28.8736 18.5854 29.271 18.75 29.6854 18.75C30.0998 18.75 30.4972 18.5854 30.7903 18.2924C31.0833 17.9993 31.2479 17.6019 31.2479 17.1875V12.0208C31.2479 10.7167 30.4354 9.55208 29.2167 9.09792L7.38542 0.21875C6.91219 0.0336654 6.40094 -0.0331489 5.89605 0.0241044C5.39115 0.0813577 4.90784 0.260949 4.48807 0.547296C4.06831 0.833642 3.72475 1.21809 3.48722 1.66729C3.24968 2.11649 3.12535 2.61687 3.125 3.125L3.12708 48.4396C3.12708 49.3021 3.82708 50.0021 4.68958 50.0021H17.1896C17.604 50.0021 18.0014 49.8375 18.2944 49.5444C18.5875 49.2514 18.7521 48.854 18.7521 48.4396C18.7521 48.0252 18.5875 47.6278 18.2944 47.3347C18.0014 47.0417 17.604 46.8771 17.1896 46.8771L17.1875 46.875ZM4.6875 46.875H1.5625C1.1481 46.875 0.750671 47.0396 0.457646 47.3326C0.16462 47.6257 0 48.0231 0 48.4375C0 48.8519 0.16462 49.2493 0.457646 49.5424C0.750671 49.8354 1.1481 50 1.5625 50H4.6875C5.1019 50 5.49933 49.8354 5.79235 49.5424C6.08538 49.2493 6.25 48.8519 6.25 48.4375C6.25 48.0231 6.08538 47.6257 5.79235 47.3326C5.49933 47.0396 5.1019 46.875 4.6875 46.875ZM9.375 10.9375H4.6875C4.2731 10.9375 3.87567 11.1021 3.58265 11.3951C3.28962 11.6882 3.125 12.0856 3.125 12.5C3.125 12.9144 3.28962 13.3118 3.58265 13.6049C3.87567 13.8979 4.2731 14.0625 4.6875 14.0625H9.375C9.7894 14.0625 10.1868 13.8979 10.4799 13.6049C10.7729 13.3118 10.9375 12.9144 10.9375 12.5C10.9375 12.0856 10.7729 11.6882 10.4799 11.3951C10.1868 11.1021 9.7894 10.9375 9.375 10.9375ZM12.5 17.1875H4.6875C4.2731 17.1875 3.87567 17.3521 3.58265 17.6451C3.28962 17.9382 3.125 18.3356 3.125 18.75C3.125 19.1644 3.28962 19.5618 3.58265 19.8549C3.87567 20.1479 4.2731 20.3125 4.6875 20.3125H12.5C12.9144 20.3125 13.3118 20.1479 13.6049 19.8549C13.8979 19.5618 14.0625 19.1644 14.0625 18.75C14.0625 18.3356 13.8979 17.9382 13.6049 17.6451C13.3118 17.3521 12.9144 17.1875 12.5 17.1875ZM17.1875 23.4375H4.6875C4.2731 23.4375 3.87567 23.6021 3.58265 23.8951C3.28962 24.1882 3.125 24.5856 3.125 25C3.125 25.4144 3.28962 25.8118 3.58265 26.1049C3.87567 26.3979 4.2731 26.5625 4.6875 26.5625H17.1875C17.6019 26.5625 17.9993 26.3979 18.2924 26.1049C18.5854 25.8118 18.75 25.4144 18.75 25C18.75 24.5856 18.5854 24.1882 18.2924 23.8951C17.9993 23.6021 17.6019 23.4375 17.1875 23.4375ZM23.4375 7.79167V1.5625C23.4375 1.1481 23.2729 0.750671 22.9799 0.457646C22.6868 0.16462 22.2894 0 21.875 0C21.4606 0 21.0632 0.16462 20.7701 0.457646C20.4771 0.750671 20.3125 1.1481 20.3125 1.5625V7.79167C20.3125 8.20607 20.4771 8.60349 20.7701 8.89652C21.0632 9.18955 21.4606 9.35417 21.875 9.35417C22.2894 9.35417 22.6868 9.18955 22.9799 8.89652C23.2729 8.60349 23.4375 8.20607 23.4375 7.79167Z" fill="#BDBDBD"/>
</svg>
