<svg width="50" height="50" viewBox="0 0 50 50" fill="none" xmlns="http://www.w3.org/2000/svg">
<path d="M50.0001 28.125C50.0001 24.8098 48.6831 21.6304 46.3389 19.2862C43.9947 16.942 40.8153 15.625 37.5001 15.625H31.2501C27.9349 15.625 24.7554 16.942 22.4112 19.2862C20.067 21.6304 18.7501 24.8098 18.7501 28.125C18.7501 31.4402 20.067 34.6197 22.4112 36.9639C24.7554 39.3081 27.9349 40.625 31.2501 40.625H32.8126L31.7084 40.1667L41.0834 49.5417C41.3019 49.76 41.5802 49.9085 41.8831 49.9687C42.186 50.0289 42.5 49.998 42.7853 49.8798C43.0707 49.7617 43.3146 49.5616 43.4863 49.3049C43.658 49.0482 43.7498 48.7464 43.7501 48.4375V37.9709L42.8542 39.3834C44.9876 38.3752 46.7914 36.7826 48.0562 34.7906C49.321 32.7987 49.995 30.4888 50.0001 28.1292V28.125ZM46.8751 28.1209C46.8719 29.8896 46.3671 31.6212 45.4194 33.1147C44.4717 34.6082 43.1199 35.8022 41.5209 36.5584C41.2531 36.6847 41.0267 36.8846 40.8681 37.1347C40.7095 37.3847 40.6252 37.6747 40.6251 37.9709V48.4375L43.2917 47.3334L33.9167 37.9584C33.624 37.6653 33.2268 37.5004 32.8126 37.5H31.2501C28.7637 37.5 26.3791 36.5123 24.6209 34.7542C22.8628 32.996 21.8751 30.6114 21.8751 28.125C21.8751 25.6386 22.8628 23.2541 24.6209 21.4959C26.3791 19.7378 28.7637 18.75 31.2501 18.75H37.5001C39.9865 18.75 42.371 19.7378 44.1292 21.4959C45.8873 23.2541 46.8751 25.6386 46.8751 28.125V28.1209ZM12.9584 25.4584L6.7084 31.7084L9.37507 32.8125V22.3459C9.37495 22.0497 9.29068 21.7597 9.13207 21.5097C8.97347 21.2596 8.74706 21.0597 8.47924 20.9334C6.55632 20.0251 5.00037 18.4886 4.068 16.5773C3.13563 14.666 2.88252 12.4939 3.35043 10.4194C3.81833 8.34492 4.9793 6.49183 6.64186 5.16578C8.30443 3.83973 10.3693 3.11991 12.4959 3.12504H18.7501C20.769 3.12541 22.7338 3.77721 24.3527 4.98355C25.9715 6.18989 27.1579 7.88638 27.7355 9.82088C27.8537 10.2182 28.1249 10.5522 28.4895 10.7495C28.854 10.9468 29.282 10.9912 29.6792 10.873C30.0765 10.7547 30.4105 10.4835 30.6078 10.119C30.8051 9.75446 30.8496 9.32648 30.7313 8.92921C29.9616 6.34939 28.3798 4.08689 26.2212 2.47812C24.0625 0.869356 21.4423 0.000253148 18.7501 4.46338e-05H12.5001C9.66237 -0.0075433 6.90689 0.952563 4.68834 2.72192C2.46979 4.49128 0.920777 6.96414 0.296919 9.73242C-0.32694 12.5007 0.0116457 15.399 1.2568 17.9489C2.50195 20.4988 4.57926 22.548 7.1459 23.7584L6.25007 22.3459V32.8125C6.25034 33.1214 6.34213 33.4232 6.51384 33.6799C6.68554 33.9366 6.92947 34.1367 7.21481 34.2548C7.50015 34.373 7.81411 34.4039 8.11702 34.3437C8.41993 34.2835 8.69822 34.135 8.91674 33.9167L15.1667 27.6667C15.3203 27.5237 15.4434 27.3512 15.5288 27.1595C15.6142 26.9678 15.6601 26.7609 15.6638 26.5511C15.6675 26.3413 15.6289 26.1329 15.5503 25.9384C15.4717 25.7438 15.3548 25.5671 15.2064 25.4187C15.058 25.2703 14.8813 25.1534 14.6867 25.0748C14.4922 24.9962 14.2838 24.9576 14.074 24.9613C13.8642 24.965 13.6573 25.0109 13.4656 25.0963C13.274 25.1817 13.1014 25.3049 12.9584 25.4584Z" fill="#BDBDBD"/>
</svg>
