<svg xmlns="http://www.w3.org/2000/svg" viewBox="0 0 507.827 142.373">
  <defs/>
  <defs>
    <linearGradient id="b" x1="0" x2="1" y1="0" y2="0" gradientTransform="matrix(1111.11 0 0 -1111.11 2697.54 846.541)" gradientUnits="userSpaceOnUse" spreadMethod="pad">
      <stop offset="0" stop-color="#00afff"/>
      <stop offset=".005" stop-color="#00afff"/>
      <stop offset="1" stop-color="#1f5bd7"/>
    </linearGradient>
    <clipPath id="a" clipPathUnits="userSpaceOnUse">
      <path d="m 3686.33,968.73 c -66.92,61.35 -155.83,99.1 -253.77,99.1 h -735.02 c 1.49,-28.59 5.65,-56.44 11.95,-83.459 1.53,-6.016 2.87,-12.113 4.63,-18.035 0.67,-2.426 1.35,-4.848 2.05,-7.258 60.98,-193.488 241.77,-333.824 455.4,-333.824 h 630.84 c 3.86,21.613 6.24,43.75 6.24,66.476 0,109.774 -47.31,208.243 -122.32,277 z"/>
    </clipPath>
  </defs>
  <path fill="#006848" d="M 2713.37,560.566 V 0.140625 h 341.62 V 315.723 h 343.83 c 179.63,0 332.8,101.867 392,244.843 H 2713.37" transform="matrix(.13333 0 0 -.13333 0 142.373)"/>
  <g clip-path="url(#a)" transform="matrix(.13333 0 0 -.13333 0 142.373)">
    <path fill="url(#b)" d="m 3686.33,968.73 c -66.92,61.35 -155.83,99.1 -253.77,99.1 h -735.02 c 1.49,-28.59 5.65,-56.44 11.95,-83.459 1.53,-6.016 2.87,-12.113 4.63,-18.035 0.67,-2.426 1.35,-4.848 2.05,-7.258 60.98,-193.488 241.77,-333.824 455.4,-333.824 h 630.84 c 3.86,21.613 6.24,43.75 6.24,66.476 0,109.774 -47.31,208.243 -122.32,277"/>
  </g>
  <path fill="#006848" d="M2107.86 955.043L1868.69 436.84h-24.27v630.99H1504.66V0H1793c75.73 0 144.55 44.0391 176.29 112.801l239.16 518.195h24.27V0h339.77v1067.83h-288.36c-75.72 0-144.53-44.03-176.27-112.787M525.855 927.492L667.391 436.848h24.261l141.536 490.644c23.98 83.118 100.05 140.338 186.552 140.338h339.3V.0117188H1019.29V630.992H995.016L800.859.0117188H558.18L364.027 630.992H339.766V.0117188H0L0 1067.83h339.316c86.5 0 162.559-57.22 186.539-140.338" transform="matrix(.13333 0 0 -.13333 0 142.373)"/>
</svg>
