<svg id="Layer_2" data-name="Layer 2" xmlns="http://www.w3.org/2000/svg" viewBox="0 0 134.98 33.04"><defs><style>.cls-1{fill:#0951a0;}.cls-2{fill:#ec1e4d;}</style></defs><title>thawte</title><path class="cls-1" d="M363.21,372.48a6.24,6.24,0,0,0-2.92-.67,8,8,0,0,0-5.16,1.84l1-5.94h-4L349.43,384h4l1.5-8.87a5.93,5.93,0,0,1,3.51-1.41,2.49,2.49,0,0,1,1.66.55c0.72,0.64.59,1.61,0.4,2.72l-1.19,7h4l1.32-7.81C364.73,375.12,365,373.49,363.21,372.48Zm10.48-.81c-4.52,0-6.05,2-6.9,3.16l0.95,0.39a6.15,6.15,0,0,1,4.49-1.75c1.13,0,2.77.3,3.28,1.54a3.23,3.23,0,0,1,.14,1.53h0.09l-0.62,3.66H375l-0.23,1.37a7.34,7.34,0,0,1-3.27.85c-2,0-2.55-1.08-2.38-2.1,0.25-1.5,1.92-2.21,3.67-2.21a6.72,6.72,0,0,1,1.43.15l0.29-1.71a11.27,11.27,0,0,0-2.45-.26c-3.54,0-6.68,1.52-7.14,4.24-0.36,2.12,1.32,3.78,4.42,3.78a8.6,8.6,0,0,0,5.25-1.68L374.41,384h3.83l1.21-7.12a3.87,3.87,0,0,0-.87-3.82C377.83,372.34,376.28,371.67,373.69,371.67ZM408.38,383a2.18,2.18,0,0,1-2-1,2.57,2.57,0,0,1-.16-1.87l0.91-5.37h4.32l0.42-2.5h-4.32l0.54-3.2h-4l-0.54,3.2h-4.16L395.8,378l-0.63,1.11c-0.22-.62-0.23-0.74-0.44-1.29l-2.07-5.69h-1.31l-5.13,7c-0.11-.58-0.15-0.71-0.26-1.24l-1.53-5.71h-4.13l3.64,11.88h1.46l5.18-6.86,2.85,6.86h1.43l6.12-9.38h2.19l-1,5.86a2.82,2.82,0,0,0,.76,2.9,5.1,5.1,0,0,0,3.29,1,9.21,9.21,0,0,0,4.09-.94l-0.35-.74A6.21,6.21,0,0,1,408.38,383Zm8.17-6.38a3.27,3.27,0,0,0-.3,1.1c-0.05.3-.08,0.53-0.09,0.7h10.55c0.19-1.29.53-3.48-1.3-5.14a8,8,0,0,0-5.26-1.59c-5.38,0-8.71,2.81-9.3,6.26-0.61,3.62,1.78,6.54,7.25,6.54,5.23,0,6.86-2.42,7.73-3.71l-0.92-.37a7.14,7.14,0,0,1-5.26,2.12c-4,0-4.57-2.39-4.64-3.62a2.56,2.56,0,0,1,0-1.11,3.66,3.66,0,0,1,.35-1.21c0.64-1.35,1.5-3,4.33-3s3,1.93,3,3h-6.15ZM346.16,369h-4l-2,11.56a2.82,2.82,0,0,0,.76,2.9,5.1,5.1,0,0,0,3.29,1,9.21,9.21,0,0,0,4.09-.94l-0.35-.74a6.2,6.2,0,0,1-1.55.23,2.18,2.18,0,0,1-2-1,2.57,2.57,0,0,1-.16-1.87l0.91-5.37h3.2l0.42-2.49h-3.2Z" transform="translate(-305.26 -360.96)"/><path class="cls-2" d="M320.37,361a15.12,15.12,0,1,0,15.12,15.12A15.12,15.12,0,0,0,320.37,361Zm0,27.23a12.11,12.11,0,1,1,12.11-12.11A12.11,12.11,0,0,1,320.37,388.19Zm1.46-19.49h-4l-2,11.56a2.82,2.82,0,0,0,.76,2.9,5.1,5.1,0,0,0,3.29,1,9.2,9.2,0,0,0,4.09-.94l-0.35-.74a6.2,6.2,0,0,1-1.56.23,2.18,2.18,0,0,1-2-1,2.56,2.56,0,0,1-.16-1.86l0.91-5.37h3.2l0.42-2.49h-3.2Z" transform="translate(-305.26 -360.96)"/><path class="cls-1" d="M428.73,370.08h-1v2.56h-0.82v-2.56h-1v-0.62h2.81v0.62h0Zm3.83,2.56h-0.82v-2.13l-0.59,1.38h-0.56L430,370.51v2.13h-0.77v-3.18h1l0.71,1.6,0.71-1.6h1v3.18h0Z" transform="translate(-305.26 -360.96)"/><path class="cls-1" d="M437.05,386.76h-0.74v1.92h-0.62v-1.92h-0.74v-0.46h2.11v0.46Zm3.19,1.92h-0.62v-1.6l-0.44,1h-0.42l-0.44-1v1.6h-0.58v-2.39h0.71l0.53,1.2,0.53-1.2h0.72v2.39h0Z" transform="translate(-305.26 -360.96)"/><path class="cls-1" d="M379.69,387.47a0.69,0.69,0,0,0-.7.52,0.43,0.43,0,0,0,.14.37,0.62,0.62,0,0,0,.43.16,0.68,0.68,0,0,0,.69-0.53A0.51,0.51,0,0,0,379.69,387.47Zm-1.18,5.1h1.12l0.44-3.59H379Zm3.91-4.57H381.3l-0.12,1H380.5l-0.07.56h0.68l-0.24,2a0.92,0.92,0,0,0,.25.88,1.41,1.41,0,0,0,.94.3,2.39,2.39,0,0,0,1.15-.29l-0.11-.22a1.63,1.63,0,0,1-.44.07,0.63,0.63,0,0,1-.58-0.32,0.85,0.85,0,0,1-.06-0.57l0.23-1.84h1l0.07-.56h-1Zm1.77-.39-0.72,2,0.33,0.06,1.62-2h-1.22Zm2.15,1.75a1,1,0,0,1,1.08.49l0.3-.07a0.84,0.84,0,0,0-.27-0.57,1.76,1.76,0,0,0-1.23-.39c-1.26,0-1.89.63-2,1.21a0.86,0.86,0,0,0,.71.91,4.25,4.25,0,0,0,.57.13,1.06,1.06,0,0,1,.9.42,0.43,0.43,0,0,1,0,.17,0.62,0.62,0,0,1-.53.48,1.56,1.56,0,0,1-.43,0,1.61,1.61,0,0,1-1.07-.33,0.76,0.76,0,0,1-.18-0.29l-0.3.06a0.88,0.88,0,0,0,.28.67,2,2,0,0,0,1.41.41c1.24,0,1.91-.58,2-1.21a0.87,0.87,0,0,0-.25-0.74,1.57,1.57,0,0,0-.77-0.34l-0.47-.09c-0.37-.09-0.75-0.18-0.71-0.5A0.79,0.79,0,0,1,386.35,389.37ZM397.91,388h-1.12l-0.12,1H396l-0.07.56h0.68l-0.25,2a0.93,0.93,0,0,0,.25.88,1.41,1.41,0,0,0,.94.3,2.4,2.4,0,0,0,1.15-.29l-0.11-.22a1.64,1.64,0,0,1-.44.07,0.63,0.63,0,0,1-.59-0.32,0.85,0.85,0,0,1-.06-0.57l0.23-1.84h1l0.07-.56h-1Zm2.53,1.43,0.05-.45h-1.13l-0.44,3.59H400l0.34-2.79a1.81,1.81,0,0,1,.89-0.25,1.7,1.7,0,0,1,.72.17l0.1-.81-0.32,0A1.81,1.81,0,0,0,400.43,389.43Zm4.45,2.29a1.45,1.45,0,0,1-.93.4,0.61,0.61,0,0,1-.68-0.79l0.29-2.34h-1.13l-0.31,2.48c0,0.32-.15,1.23,1.31,1.23a1.9,1.9,0,0,0,1.4-.55l-0.05.44h1.13l0.44-3.59h-1.13Zm4.09-2.35a1,1,0,0,1,1.08.49l0.3-.07a0.83,0.83,0,0,0-.27-0.57,1.76,1.76,0,0,0-1.23-.39c-1.26,0-1.89.63-2,1.21a0.86,0.86,0,0,0,.71.91,4.25,4.25,0,0,0,.57.13,1.06,1.06,0,0,1,.9.42,0.43,0.43,0,0,1,0,.17,0.61,0.61,0,0,1-.53.48,1.55,1.55,0,0,1-.43,0,1.61,1.61,0,0,1-1.07-.33,0.76,0.76,0,0,1-.18-0.29l-0.3.06a0.89,0.89,0,0,0,.28.67,2,2,0,0,0,1.41.41c1.24,0,1.91-.58,2-1.21a0.87,0.87,0,0,0-.25-0.74,1.57,1.57,0,0,0-.77-0.34l-0.47-.09c-0.37-.09-0.75-0.18-0.71-0.5A0.79,0.79,0,0,1,409,389.37Zm3.68-1.36h-1.12l-0.12,1h-0.68l-0.07.56h0.68l-0.24,2a0.93,0.93,0,0,0,.25.88,1.41,1.41,0,0,0,.94.3,2.4,2.4,0,0,0,1.15-.29l-0.11-.22a1.64,1.64,0,0,1-.44.07,0.63,0.63,0,0,1-.58-0.32,0.84,0.84,0,0,1-.06-0.57l0.23-1.84h1l0.07-.56h-1Zm4.85,0h-1.12l-0.12,1h-0.68l-0.07.56h0.68l-0.24,2a0.93,0.93,0,0,0,.25.88,1.41,1.41,0,0,0,.94.3,2.39,2.39,0,0,0,1.15-.29l-0.11-.22a1.64,1.64,0,0,1-.44.07,0.63,0.63,0,0,1-.58-0.32,0.84,0.84,0,0,1-.06-0.57l0.23-1.84h1l0.07-.56h-1Zm4.79,1.07a1.71,1.71,0,0,0-.83-0.2,2.12,2.12,0,0,0-1.44.56l0.22-1.81h-1.12l-0.61,5h1.12l0.33-2.7a1.56,1.56,0,0,1,1-.43,0.7,0.7,0,0,1,.48.17,0.9,0.9,0,0,1,.14.83l-0.26,2.14h1.12l0.29-2.38A1,1,0,0,0,422.29,389.07Zm2.22-1.6a0.69,0.69,0,0,0-.7.52,0.43,0.43,0,0,0,.14.37,0.62,0.62,0,0,0,.43.16,0.68,0.68,0,0,0,.69-0.53A0.51,0.51,0,0,0,424.51,387.47Zm-1.18,5.1h1.12l0.44-3.59h-1.12Zm5-3.7a2.06,2.06,0,0,0-1.48.58l0.06-.47h-1.12l-0.44,3.59h1.12l0.33-2.67a1.5,1.5,0,0,1,1-.44,0.57,0.57,0,0,1,.63.42,1.06,1.06,0,0,1,0,.36l-0.29,2.33h1.13l0.3-2.43a1,1,0,0,0-.23-0.94A1.42,1.42,0,0,0,428.33,388.88Zm5.27,0.1,0,0.39a1.41,1.41,0,0,0-1.23-.54,2.05,2.05,0,0,0-2.09,1.84,1.49,1.49,0,0,0,1.55,1.77,2.24,2.24,0,0,0,1.23-.38,1.89,1.89,0,0,0,.23-0.19,1.6,1.6,0,0,1-.56,1.26,1.7,1.7,0,0,1-1,.32,1.48,1.48,0,0,1-1-.34,2.76,2.76,0,0,1-.24-0.31l-0.28.11a1.06,1.06,0,0,0,.32.66,2.24,2.24,0,0,0,1.48.44,3,3,0,0,0,1.75-.49,2,2,0,0,0,.7-1.45l0.38-3.07H433.6Zm-0.3,2.48a1.53,1.53,0,0,1-1,.41,0.92,0.92,0,0,1-.87-1.2,1.27,1.27,0,0,1,1.21-1.28,0.94,0.94,0,0,1,.85.48Zm-41.37-2.63a2,2,0,0,0-1.92,1l0.27,0.12a1.62,1.62,0,0,1,1.25-.53,1,1,0,0,1,.95.47,1.19,1.19,0,0,1,0,.55,3.53,3.53,0,0,0-1-.15,1.78,1.78,0,0,0-2,1.29,1.09,1.09,0,0,0,1.29,1.15,2.25,2.25,0,0,0,1.47-.51l0,0.41h1.09l0.27-2.17a1.27,1.27,0,0,0-.29-1.16A2,2,0,0,0,391.92,388.83Zm0.42,3a1.92,1.92,0,0,1-.92.26,0.58,0.58,0,0,1-.7-0.64,0.91,0.91,0,0,1,1-.67,2.07,2.07,0,0,1,.71.13Z" transform="translate(-305.26 -360.96)"/></svg>
