<svg xmlns="http://www.w3.org/2000/svg" width="23" height="23" fill="none">
  <path fill="#fff" d="M23 0H0v23h23V0Z"/>
  <path fill="#1A1F71" d="M22.494 11.5H.508v10.993h21.986V11.501ZM9.092 3.215 6.932 8.38H5.517L4.45 4.26c-.065-.254-.116-.349-.317-.455-.42-.2-.862-.348-1.318-.439l.031-.15H5.12a.623.623 0 0 1 .616.527L6.3 6.73l1.394-3.516h1.4Zm5.535 3.486c0-1.364-1.885-1.44-1.872-2.049 0-.184.18-.382.567-.432.452-.043.907.038 1.317.233l.233-1.096c-.4-.15-.822-.23-1.249-.232-1.322 0-2.25.697-2.258 1.706-.008.744.664 1.162 1.17 1.407.505.245.697.415.697.641 0 .349-.415.5-.799.506-.48.01-.953-.104-1.376-.33l-.243 1.132c.474.185.978.279 1.486.278 1.404 0 2.323-.697 2.323-1.767l.004.003Zm3.481 1.683h1.235l-1.072-5.169h-1.14a.607.607 0 0 0-.569.38L14.557 8.38h1.403l.28-.771h1.713l.155.775ZM16.624 6.55l.702-1.94.41 1.94h-1.112Zm-5.625-3.336L9.898 8.38H8.559l1.105-5.165h1.335Z"/>
  <path fill="#fff" d="M5.358 17.875c.193.107.41.165.63.166.302 0 .473-.143.473-.357 0-.213-.132-.312-.464-.433-.434-.151-.708-.382-.708-.754 0-.43.356-.75.93-.75.214-.006.427.038.622.127l-.116.387a1.12 1.12 0 0 0-.52-.129c-.301 0-.43.16-.43.314 0 .2.152.294.5.425.452.174.67.403.67.774 0 .422-.318.782-.987.782a1.544 1.544 0 0 1-.708-.163l.108-.39ZM8.792 17.231h-.98v.767h1.096v.39H7.336v-2.604h1.51v.39H7.801v.674h.99v.383ZM11.16 18.31a1.72 1.72 0 0 1-.678.117c-.829 0-1.332-.518-1.332-1.312 0-.858.601-1.373 1.394-1.373a1.51 1.51 0 0 1 .631.116l-.1.38a1.28 1.28 0 0 0-.512-.101c-.53 0-.913.333-.913.96 0 .572.333.936.91.936.177.001.352-.03.518-.093l.081.37ZM11.999 15.784v1.52c0 .511.212.747.534.747.349 0 .55-.232.55-.747v-1.52h.471v1.489c0 .805-.414 1.162-1.045 1.162-.604 0-.996-.337-.996-1.162v-1.49H12ZM14.066 15.819c.237-.041.478-.06.72-.059.375 0 .626.063.805.21a.663.663 0 0 1 .224.526.686.686 0 0 1-.476.65v.012c.19.07.302.25.363.503.055.246.124.489.206.727h-.488a3.366 3.366 0 0 1-.174-.616c-.077-.34-.198-.448-.465-.456h-.24v1.072h-.475v-2.57Zm.472 1.15h.283c.32 0 .518-.171.518-.43 0-.283-.198-.418-.507-.418a1.36 1.36 0 0 0-.294.023v.825ZM17.688 17.231h-.983v.767h1.099v.39h-1.578v-2.604h1.516v.39h-1.045v.674h.983l.008.383Z"/>
</svg>
