<svg width="19" height="20" viewBox="0 0 19 20" fill="none" xmlns="http://www.w3.org/2000/svg">
<path fill-rule="evenodd" clip-rule="evenodd" d="M11.2941 18.9412V15.6471C11.2941 15.179 11.1081 14.7302 10.7772 14.3992C10.4462 14.0683 9.99738 13.8824 9.52936 13.8824C9.06133 13.8824 8.61247 14.0683 8.28152 14.3992C7.95057 14.7302 7.76465 15.179 7.76465 15.6471V18.9412H3.05877V14.2353L6.58818 11.8824V8.00001L9.76465 5.88236L12.7058 8.11765V11.5294L12.8235 11.8824L16.3529 14.2353V18.9412H11.2941ZM8.70583 18.9412V15.6471C8.77268 15.4669 8.89306 15.3116 9.05079 15.2019C9.20852 15.0922 9.39605 15.0334 9.58818 15.0334C9.7803 15.0334 9.96783 15.0922 10.1256 15.2019C10.2833 15.3116 10.4037 15.4669 10.4705 15.6471V18.9412H8.70583ZM3.99994 9.05883C3.99115 8.86959 4.02819 8.68102 4.10791 8.50917C4.18764 8.33731 4.30768 8.18725 4.45784 8.07174C4.608 7.95624 4.78383 7.8787 4.97039 7.84573C5.15694 7.81276 5.3487 7.82532 5.52935 7.88236L5.05877 8.2353C5.02014 8.27393 4.9895 8.31978 4.9686 8.37024C4.9477 8.42071 4.93694 8.4748 4.93694 8.52942C4.93694 8.58404 4.9477 8.63813 4.9686 8.68859C4.9895 8.73906 5.02014 8.78491 5.05877 8.82354C5.13677 8.90154 5.24257 8.94536 5.35288 8.94536C5.40751 8.94536 5.46159 8.93461 5.51206 8.9137C5.56252 8.8928 5.60838 8.86216 5.647 8.82354V11.1765L3.8823 12.5882V9.05883H3.99994ZM15.1764 9.05883V12.5882L13.4117 11.2941V8.70589L13.647 8.94118C13.6934 8.97208 13.7453 8.99355 13.8 9.00436C13.8546 9.01517 13.9109 9.01511 13.9655 9.00419C14.0201 8.99326 14.072 8.97169 14.1183 8.94069C14.1646 8.90969 14.2043 8.86989 14.2352 8.82354C14.2661 8.77719 14.2876 8.72521 14.2984 8.67056C14.3092 8.61592 14.3092 8.55968 14.2982 8.50505C14.2873 8.45043 14.2657 8.3985 14.2347 8.35221C14.2037 8.30593 14.1639 8.2662 14.1176 8.2353L13.5294 7.76471H13.8823C14.5882 7.76471 15.1764 8.35295 15.1764 8.94118V9.05883ZM17.9999 18.9412H17.0588V14.9412L17.4117 15.0588L17.647 14.9412V14.3529L16.8235 13.7647L15.9999 13.1765V8.94118C15.9999 7.76471 15.0588 6.82354 13.8823 6.82354L12.8235 7.17648L9.99994 5.05883V3.29412H11.0588C11.168 3.29412 11.2727 3.25074 11.3499 3.17352C11.4271 3.0963 11.4705 2.99157 11.4705 2.88236C11.4705 2.77315 11.4271 2.66842 11.3499 2.5912C11.2727 2.51398 11.168 2.4706 11.0588 2.4706H9.99994V0.941184C9.99994 0.831977 9.95656 0.727243 9.87934 0.650022C9.80212 0.572801 9.69738 0.529419 9.58818 0.529419C9.47897 0.529419 9.37424 0.572801 9.29702 0.650022C9.2198 0.727243 9.17641 0.831977 9.17641 0.941184V2.4706H8.11759C8.06352 2.4706 8.00997 2.48125 7.96001 2.50194C7.91006 2.52263 7.86466 2.55296 7.82643 2.5912C7.78819 2.62943 7.75786 2.67483 7.73717 2.72478C7.71648 2.77474 7.70583 2.82829 7.70583 2.88236C7.70583 2.93643 7.71648 2.98998 7.73717 3.03994C7.75786 3.08989 7.78819 3.13529 7.82643 3.17352C7.86466 3.21176 7.91006 3.24209 7.96001 3.26278C8.00997 3.28347 8.06352 3.29412 8.11759 3.29412H9.17641V5.17648L6.23524 7.29413C5.99994 7.05883 5.52935 6.94118 5.17641 6.94118C3.99994 6.94118 3.05877 7.88236 3.05877 9.05883V12.9412L2.23524 13.6471L1.52935 14.2353C1.44203 14.2381 1.35721 14.2651 1.28438 14.3134C1.21156 14.3617 1.15361 14.4292 1.11702 14.5086C1.08043 14.5879 1.06666 14.6759 1.07723 14.7626C1.0878 14.8493 1.12231 14.9314 1.17689 14.9996C1.23147 15.0678 1.30396 15.1195 1.38625 15.1489C1.46854 15.1782 1.55738 15.1841 1.64281 15.1658C1.72825 15.1475 1.80691 15.1058 1.86998 15.0454C1.93306 14.9849 1.97806 14.9081 1.99994 14.8235V18.8235H1.17641C1.06721 18.8235 0.962472 18.8669 0.885252 18.9441C0.808031 19.0214 0.764648 19.1261 0.764648 19.2353C0.764648 19.3445 0.808031 19.4492 0.885252 19.5265C0.962472 19.6037 1.06721 19.6471 1.17641 19.6471H17.9999C18.1091 19.6471 18.2139 19.6037 18.2911 19.5265C18.3683 19.4492 18.4117 19.3445 18.4117 19.2353C18.4117 19.1261 18.3683 19.0214 18.2911 18.9441C18.2139 18.8669 18.1091 18.8235 17.9999 18.8235V18.9412Z" fill="#292F37"/>
</svg>
