<svg width="15" height="20" viewBox="0 0 15 20" fill="none" xmlns="http://www.w3.org/2000/svg">
<g clip-path="url(#clip0_15_360)">
<mask id="mask0_15_360" style="mask-type:luminance" maskUnits="userSpaceOnUse" x="0" y="2" width="14" height="18">
<path d="M0 2.45526H14V19.7494H0V2.45526Z" fill="#292F37"/>
</mask>
<g mask="url(#mask0_15_360)">
<path fill-rule="evenodd" clip-rule="evenodd" d="M0.823529 9.86703L1.17647 7.98467L2.11765 11.1611C2.58824 12.4553 3.76471 13.3964 5.29412 13.3964H8.82353C10.1176 13.3964 11.4118 12.4553 11.7647 11.0435L12.8235 7.98467L13.1765 9.74938V15.9847C13.1765 16.6906 12.5882 17.1611 12 17.1611H2C1.83591 17.1776 1.67019 17.1594 1.51358 17.1078C1.35698 17.0561 1.21299 16.972 1.09096 16.8611C0.96893 16.7502 0.871588 16.6148 0.805249 16.4638C0.73891 16.3128 0.705056 16.1496 0.705882 15.9847V9.86703H0.823529ZM3.17647 5.86703L3.52941 6.33761C4 7.16114 4.82353 7.51408 5.76471 7.51408H8.23529C9.17647 7.51408 10 7.16114 10.5882 6.33761L10.8235 5.86703L12.2353 7.0435L11.0588 10.9258C10.9254 11.4435 10.6197 11.9004 10.1921 12.2211C9.76438 12.5419 9.24022 12.7075 8.70588 12.6906H5.17647C4.64214 12.7075 4.11797 12.5419 3.69029 12.2211C3.26261 11.9004 2.95691 11.4435 2.82353 10.9258L1.64706 7.16114C2.05806 6.62499 2.57969 6.18362 3.17647 5.86703ZM8.47059 5.27879C9.05882 5.27879 9.64706 5.27879 10.1176 5.51409L9.76471 5.86703C9.41177 6.57291 8.94118 6.8082 8.23529 6.8082H5.88235C5.17647 6.8082 4.70588 6.57291 4.23529 5.98467L3.88235 5.63173L5.41176 5.39644H8.47059V5.27879ZM0 16.1023C0 17.2788 0.941176 18.1023 2.11765 18.1023H2.35294V19.2788C2.35294 19.388 2.39632 19.4927 2.47354 19.57C2.55077 19.6472 2.6555 19.6906 2.76471 19.6906C2.87391 19.6906 2.97865 19.6472 3.05587 19.57C3.13309 19.4927 3.17647 19.388 3.17647 19.2788V18.1023H10.5882V19.2788C10.5882 19.3329 10.5989 19.3864 10.6196 19.4364C10.6403 19.4863 10.6706 19.5317 10.7088 19.57C10.7471 19.6082 10.7925 19.6385 10.8424 19.6592C10.8924 19.6799 10.9459 19.6906 11 19.6906C11.0541 19.6906 11.1076 19.6799 11.1576 19.6592C11.2075 19.6385 11.2529 19.6082 11.2912 19.57C11.3294 19.5317 11.3597 19.4863 11.3804 19.4364C11.4011 19.3864 11.4118 19.3329 11.4118 19.2788V18.1023H11.7647C12.9412 18.1023 13.8824 17.1611 13.8824 16.1023V9.86703C14 6.8082 11.5294 4.45526 8.47059 4.45526H7.29412V3.27879H10C10.0541 3.27879 10.1076 3.26814 10.1576 3.24745C10.2075 3.22675 10.2529 3.19642 10.2912 3.15819C10.3294 3.11995 10.3597 3.07456 10.3804 3.0246C10.4011 2.97464 10.4118 2.9211 10.4118 2.86703C10.4118 2.81295 10.4011 2.75941 10.3804 2.70945C10.3597 2.65949 10.3294 2.6141 10.2912 2.57586C10.2529 2.53763 10.2075 2.5073 10.1576 2.4866C10.1076 2.46591 10.0541 2.45526 10 2.45526H4C3.94593 2.45526 3.89238 2.46591 3.84242 2.4866C3.79247 2.5073 3.74707 2.53763 3.70884 2.57586C3.6706 2.6141 3.64027 2.65949 3.61958 2.70945C3.59889 2.75941 3.58824 2.81295 3.58824 2.86703C3.58824 2.9211 3.59889 2.97464 3.61958 3.0246C3.64027 3.07456 3.6706 3.11995 3.70884 3.15819C3.74707 3.19642 3.79247 3.22675 3.84242 3.24745C3.89238 3.26814 3.94593 3.27879 4 3.27879H6.58824V4.33761H5.41176C2.47059 4.45526 0 6.8082 0 9.98467V16.22V16.1023Z" fill="#292F37"/>
</g>
<path fill-rule="evenodd" clip-rule="evenodd" d="M2.9416 15.0588L4.11807 15.5294H4.35337C4.46258 15.545 4.57351 15.5166 4.66176 15.4504C4.75001 15.3842 4.80836 15.2857 4.82396 15.1765C4.83956 15.0673 4.81114 14.9563 4.74495 14.8681C4.67876 14.7798 4.58022 14.7215 4.47102 14.7059L3.1769 14.2353C2.9416 14.2353 2.70631 14.2353 2.70631 14.4706C2.58866 14.7059 2.70631 14.9412 2.9416 15.0588ZM9.64749 15.5294H9.76513L11.0593 15.0588C11.2945 15.0588 11.4122 14.7059 11.2945 14.4706L10.824 14.2353L9.52984 14.7059C9.29455 14.7059 9.1769 15.0588 9.29455 15.2941L9.64749 15.5294Z" fill="#292F37"/>
<mask id="mask1_15_360" style="mask-type:luminance" maskUnits="userSpaceOnUse" x="1" y="-1" width="12" height="3">
<path d="M1.76511 -0.0153198H12.2357V1.74939H1.64746L1.76511 -0.0153198Z" fill="#292F37"/>
</mask>
<g mask="url(#mask1_15_360)">
<path fill-rule="evenodd" clip-rule="evenodd" d="M4.35311 0.925849C3.64723 0.925849 2.94135 0.690555 2.47076 0.10232C2.3873 0.0354948 2.28356 -0.000915527 2.17664 -0.000915527C2.06972 -0.000915527 1.96599 0.0354948 1.88253 0.10232C1.64723 0.337614 1.64723 0.572908 1.88253 0.690555C2.53416 1.35555 3.42216 1.73612 4.35311 1.74938H9.64723C10.5782 1.73612 11.4662 1.35555 12.1178 0.690555C12.143 0.608792 12.1454 0.521712 12.1248 0.43868C12.1042 0.355649 12.0613 0.279808 12.0008 0.219314C11.9403 0.15882 11.8645 0.115961 11.7815 0.0953467C11.6984 0.0747328 11.6113 0.0771436 11.5296 0.10232C11.059 0.690555 10.3531 0.925849 9.64723 0.925849H4.35311Z" fill="#292F37"/>
</g>
</g>
<defs>
<clipPath id="clip0_15_360">
<rect width="14.1176" height="20" fill="white"/>
</clipPath>
</defs>
</svg>
