<svg width="50" height="50" viewBox="0 0 50 50" fill="none" xmlns="http://www.w3.org/2000/svg">
<path d="M30.546 47.9958L30.571 48.0104C35.696 51.2729 42.4668 50.5312 46.8043 46.1916L48.4168 44.5791C49.4296 43.5651 49.9985 42.1905 49.9985 40.7573C49.9985 39.324 49.4296 37.9494 48.4168 36.9354L41.6251 30.1437C40.611 29.1303 39.2359 28.561 37.8022 28.561C36.3685 28.561 34.9934 29.1303 33.9793 30.1437C33.7681 30.3555 33.5173 30.5236 33.2411 30.6385C32.9649 30.7533 32.6688 30.8126 32.3697 30.813C32.0706 30.8134 31.7744 30.7549 31.4979 30.6407C31.2215 30.5266 30.9702 30.3591 30.7585 30.1479L30.7564 30.1458L19.8835 19.2708C19.4565 18.8428 19.2167 18.2629 19.2167 17.6583C19.2167 17.0537 19.4565 16.4738 19.8835 16.0458C20.8964 15.0334 21.4659 13.6601 21.4667 12.2279C21.4675 10.7957 20.8995 9.42185 19.8876 8.4083C19.8876 8.40413 19.8876 8.40413 19.8835 8.40205L13.0918 1.60413C12.0777 0.591337 10.7031 0.0224609 9.26992 0.0224609C7.83672 0.0224609 6.46211 0.591337 5.44805 1.60413L3.83555 3.21663C1.72995 5.32269 0.405195 8.08361 0.0798533 11.0439C-0.245488 14.0041 0.448023 16.9869 2.04597 19.5L2.08347 19.5541C9.64033 30.7428 19.2726 40.3786 30.4585 47.9395L30.546 47.9958ZM32.2085 45.35C21.3549 38.0151 12.0084 28.6672 4.67513 17.8125L4.66472 17.7958C3.45511 15.8838 2.93263 13.6169 3.18331 11.3683C3.434 9.11979 4.44289 7.02362 6.04388 5.42497L7.65638 3.81247C8.08451 3.38488 8.66484 3.14471 9.26992 3.14471C9.875 3.14471 10.4553 3.38488 10.8835 3.81247L17.6751 10.6125V10.6166C18.5668 11.5062 18.5647 12.9479 17.6751 13.8354C16.6617 14.8495 16.0924 16.2246 16.0924 17.6583C16.0924 19.092 16.6617 20.4671 17.6751 21.4812L28.546 32.3562L28.5501 32.3583C29.5638 33.3708 30.9381 33.9392 32.3708 33.9384C33.8035 33.9376 35.1772 33.3677 36.1897 32.3541C36.6178 31.9272 37.1976 31.6874 37.8022 31.6874C38.4068 31.6874 38.9867 31.9272 39.4147 32.3541L46.2064 39.1458C47.0981 40.0354 47.0981 41.4791 46.2064 42.3708L44.596 43.9833C42.9924 45.5866 40.8899 46.595 38.6358 46.842C36.3817 47.0889 34.1107 46.5597 32.198 45.3416L32.121 45.2958L32.2085 45.35Z" fill="#BDBDBD"/>
</svg>
