<svg width="15" height="20" viewBox="0 0 15 20" fill="none" xmlns="http://www.w3.org/2000/svg">
<path fill-rule="evenodd" clip-rule="evenodd" d="M13.7996 7.99997H12.1996C12.3996 7.39997 12.4996 6.69997 12.4996 5.99997H13.7996V7.99997ZM7.19961 16C4.69961 16 2.39961 13 1.29961 8.79997H2.29961C2.99961 12 4.99961 14.2 7.09961 14.2C9.19961 14.2 11.0996 12 11.9996 8.79997H12.8996C11.8996 13.1 9.49961 15.9 7.09961 15.9L7.19961 16ZM0.699609 5.99997H1.69961L2.09961 7.99997H0.699609V5.99997ZM2.69961 2.59997C4.0954 1.89663 5.63662 1.53026 7.19961 1.53026C8.76259 1.53026 10.3038 1.89663 11.6996 2.59997L11.8996 4.99997C11.8996 9.69997 9.79961 13.5 7.19961 13.5C4.59961 13.5 2.39961 9.69997 2.39961 4.99997L2.59961 2.59997H2.69961ZM13.9996 5.19997H12.4996V4.99997C12.4996 3.99997 12.3996 3.09997 12.1996 2.19997C12.1996 2.19997 12.1996 1.99997 11.9996 1.99997C10.4588 1.18559 8.7424 0.759888 6.99961 0.759888C5.25682 0.759888 3.54041 1.18559 1.99961 1.99997L1.89961 2.29997L1.69961 4.99997V5.19997H0.399609C0.199609 5.19997 0.0996094 5.39997 0.0996094 5.59997V8.39997C0.0996094 8.59997 0.199609 8.79997 0.399609 8.79997H0.699609C1.69961 13.4 4.19961 16.4 6.89961 16.6V19C6.89961 19.2 7.09961 19.3 7.29961 19.3C7.49961 19.3 7.59961 19.2 7.59961 19V16.7C10.3996 16.5 12.7996 13.5 13.7996 8.89997H14.1996C14.3996 8.89997 14.5996 8.69997 14.5996 8.49997V5.59997C14.5996 5.39997 14.3996 5.19997 14.1996 5.19997H13.9996Z" fill="#292F37"/>
</svg>
