<svg xmlns="http://www.w3.org/2000/svg" width="64" height="23" fill="none">
  <path fill="#EC2127" fill-rule="evenodd" d="M60.634 8.728h.135c.05 0 .108.002.15-.023.04-.026.059-.08.059-.127 0-.041-.024-.09-.06-.11-.036-.025-.109-.02-.151-.02h-.133v.28Zm0 .617h-.243V8.247h.44c.09 0 .19.005.268.06a.341.341 0 0 1 .133.277c0 .121-.07.235-.18.276l.19.485h-.27l-.16-.43h-.178v.43Zm.161.406c.5 0 .906-.428.906-.952 0-.522-.407-.946-.906-.946-.496 0-.906.424-.906.946 0 .524.41.952.906.952ZM59.608 8.8c0-.69.535-1.247 1.187-1.247.656 0 1.185.558 1.185 1.247 0 .69-.528 1.248-1.185 1.248-.652 0-1.187-.558-1.187-1.248ZM42.636.508l-.326 2.114c-.705-.375-1.224-.522-1.778-.522-1.478 0-2.524 1.502-2.524 3.647 0 1.481.702 2.374 1.856 2.374.49 0 1.029-.157 1.688-.502l-.347 2.224c-.73.21-1.205.285-1.756.285-2.141 0-3.473-1.615-3.473-4.207 0-3.486 1.84-5.921 4.473-5.921.34 0 .644.033.89.105l.82.214c.243.097.298.111.477.189M36.044 1.957a1.092 1.092 0 0 0-.204-.02c-.654 0-1.024.345-1.632 1.29l.177-1.205h-1.8l-1.219 7.926h1.996c.714-4.844.896-5.68 1.853-5.68.058 0 .063 0 .145.007.176-.955.418-1.657.751-2.297l-.067-.021ZM24.153 9.851c-.54.18-.967.262-1.425.262-1.014 0-1.567-.618-1.567-1.744 0-.22.016-.46.056-.71l.123-.773.091-.632.862-5.408h1.974l-.226 1.176h1.016l-.279 1.927h-1.014l-.524 3.308c-.018.146-.034.254-.034.328 0 .406.208.587.677.587.23 0 .402-.024.535-.074l-.265 1.753ZM16.324 4.529c0 1 .46 1.692 1.505 2.209.8.397.926.513.926.874 0 .492-.354.72-1.136.72-.59 0-1.14-.098-1.776-.317l-.274 1.828.09.02.364.077c.117.025.29.047.518.071.473.045.837.066 1.093.066 2.084 0 3.048-.841 3.048-2.646 0-1.085-.402-1.727-1.395-2.207-.828-.394-.922-.487-.922-.855 0-.43.328-.651.966-.651.39 0 .917.046 1.421.118l.283-1.83a12.404 12.404 0 0 0-1.742-.157c-2.211 0-2.978 1.217-2.97 2.68M55.524 8.082c.928 0 1.576-1.101 1.576-2.67 0-1.008-.37-1.556-1.056-1.556-.9 0-1.54 1.106-1.54 2.666 0 1.037.345 1.56 1.02 1.56Zm2.931 1.866h-1.88l.1-.776c-.548.613-1.11.88-1.836.88-1.453 0-2.405-1.307-2.405-3.29 0-2.636 1.48-4.861 3.236-4.861.772 0 1.356.334 1.905 1.085L58.008.2h1.957l-1.51 9.747ZM29.33 5.062c.01-.166.014-.3.014-.401 0-.648-.35-1.026-.94-1.026-.63 0-1.082.505-1.267 1.422l2.193.005Zm1.114 4.72a6.582 6.582 0 0 1-2.04.318c-2.216 0-3.373-1.218-3.373-3.548 0-2.724 1.472-4.729 3.473-4.729 1.632 0 2.68 1.124 2.68 2.885 0 .583-.07 1.152-.247 1.955h-3.95c-.016.12-.018.176-.018.246 0 .926.59 1.393 1.746 1.393.709 0 1.346-.154 2.06-.504l-.331 1.984ZM8.35 9.948H6.365l1.137-7.49-2.54 7.49h-1.36l-.164-7.446-1.197 7.446H.383L1.933.201h2.86l.078 6.032L6.801.2h3.087L8.35 9.948ZM14.907 9.948h-1.645l.036-.823c-.5.657-1.17.96-2.08.96-1.08 0-1.818-.882-1.818-2.158 0-1.935 1.289-3.059 3.491-3.059.225 0 .512.018.808.059.062-.262.079-.375.079-.514 0-.524-.346-.723-1.277-.723-.561 0-1.206.086-1.65.227l-.277.08-.174.051.273-1.777c.992-.308 1.645-.427 2.38-.427 1.707 0 2.612.805 2.612 2.324 0 .394-.029.687-.164 1.572l-.416 2.808-.068.508-.05.404-.035.276-.025.212Zm-1.444-3.53a3.322 3.322 0 0 0-.445-.035c-1.125 0-1.696.41-1.696 1.21 0 .494.28.808.714.808.808 0 1.394-.808 1.427-1.983ZM47.502 9.948h-1.647l.039-.823c-.501.657-1.172.96-2.081.96-1.08 0-1.82-.882-1.82-2.158 0-1.935 1.287-3.059 3.494-3.059.223 0 .513.018.807.059.06-.262.079-.375.079-.514 0-.524-.345-.723-1.276-.723-.565 0-1.208.086-1.65.227l-.282.08-.171.051.276-1.777c.993-.308 1.644-.427 2.375-.427 1.71 0 2.614.805 2.614 2.324 0 .394-.034.687-.163 1.572l-.419 2.808-.061.508-.056.404-.036.276-.022.212Zm-1.445-3.53a3.279 3.279 0 0 0-.442-.035c-1.13 0-1.702.41-1.702 1.21 0 .494.284.808.718.808.811 0 1.39-.808 1.426-1.983ZM53.05 1.957a.992.992 0 0 0-.2-.02c-.651 0-1.024.345-1.635 1.29l.177-1.205h-1.796L48.38 9.948h1.989c.714-4.844.902-5.68 1.852-5.68.062 0 .058-.006.14.007.18-.955.422-1.657.756-2.297l-.068-.021Z" clip-rule="evenodd"/>
  <path fill="#F89620" fill-rule="evenodd" d="M46.67 17.668c0-1.997-.988-3.552-2.843-3.552-2.137 0-3.52 1.89-3.52 4.674 0 1.992.818 3.621 2.84 3.621 2.041 0 3.523-1.444 3.523-4.743m-1.954-.033c0 1.797-.556 2.855-1.433 2.855-.64.02-1.029-.694-1.029-1.76 0-1.262.567-2.693 1.477-2.693.732 0 .985.775.985 1.598M40.945 12.714l-.303 2.112c-.66-.372-1.141-.527-1.66-.527-1.388 0-2.357 1.509-2.357 3.654 0 1.48.649 2.376 1.73 2.376.461 0 .966-.157 1.578-.503l-.322 2.224c-.686.211-1.134.284-1.644.284-2 0-3.245-1.616-3.245-4.208 0-3.488 1.72-5.922 4.181-5.922.319 0 .601.04.834.105l.76.215c.234.093.283.11.448.19M28.664 14.166a.728.728 0 0 0-.19-.022c-.603 0-.956.347-1.52 1.288l.164-1.202h-1.68l-1.133 7.927h1.854c.667-4.85.843-5.684 1.733-5.684.053 0 .058 0 .135.01.168-.96.393-1.662.705-2.304l-.068-.013ZM50.147 20.207c.874 0 1.476-1.1 1.476-2.67 0-1.01-.344-1.553-.982-1.553-.843 0-1.443 1.102-1.443 2.667 0 1.033.322 1.556.95 1.556Zm2.742 1.865h-1.752l.09-.774c-.51.61-1.04.88-1.718.88-1.352 0-2.244-1.31-2.244-3.291 0-2.632 1.385-4.864 3.022-4.864.723 0 1.27.34 1.777 1.092l.41-2.787h1.825l-1.41 9.744ZM10.236 17.323c.008-.167.013-.3.013-.402 0-.647-.325-1.025-.876-1.025-.593 0-1.014.509-1.184 1.42l2.047.007Zm1.037 4.716a5.71 5.71 0 0 1-1.9.323c-2.071 0-3.152-1.22-3.152-3.55 0-2.72 1.375-4.726 3.242-4.726 1.528 0 2.503 1.121 2.503 2.882 0 .583-.066 1.153-.225 1.957H8.044a2.461 2.461 0 0 0-.015.246c0 .924.554 1.39 1.63 1.39.662 0 1.262-.154 1.926-.502l-.312 1.98ZM32.292 17.323c.012-.167.019-.3.019-.402 0-.647-.329-1.025-.877-1.025-.593 0-1.014.509-1.185 1.42l2.043.007Zm1.043 4.716a5.733 5.733 0 0 1-1.901.323c-2.076 0-3.155-1.22-3.155-3.55 0-2.72 1.377-4.726 3.242-4.726 1.529 0 2.507 1.121 2.507 2.882 0 .583-.07 1.153-.234 1.957h-3.688c-.012.118-.018.177-.018.246 0 .924.552 1.39 1.628 1.39.663 0 1.263-.154 1.928-.502l-.31 1.98ZM58.175 17.323c.008-.167.013-.3.013-.402 0-.647-.324-1.025-.876-1.025-.593 0-1.012.509-1.184 1.42l2.047.007Zm1.042 4.716a5.776 5.776 0 0 1-1.905.323c-2.071 0-3.155-1.22-3.155-3.55 0-2.72 1.38-4.726 3.244-4.726 1.529 0 2.503 1.121 2.503 2.882 0 .583-.064 1.153-.228 1.957h-3.692a2.033 2.033 0 0 0-.016.246c0 .924.554 1.39 1.63 1.39.663 0 1.261-.154 1.927-.502l-.308 1.98ZM5.783 14.524a2.69 2.69 0 0 0-1.55-.455c-.75 0-1.353.155-1.353.953 0 1.408 2.734.882 2.734 3.898 0 2.746-1.804 3.458-3.437 3.458-.726 0-1.561-.24-2.177-.513l.443-2.019c.372.338 1.121.569 1.734.569.585 0 1.5-.16 1.5-1.179 0-1.595-2.732-1.002-2.732-3.803 0-2.562 1.596-3.329 3.136-3.329.867 0 1.681.127 2.159.445l-.457 1.975ZM16.703 22.037c-.382.183-.893.304-1.647.304-1.62 0-2.626-1.62-2.626-3.59 0-2.582 1.454-4.64 3.594-4.64.467 0 1.18.202 1.741.527l-.41 1.893c-.398-.26-.812-.427-1.239-.427-.991 0-1.7.908-1.7 2.536 0 .937.514 1.706 1.326 1.706.483 0 .823-.102 1.239-.345l-.278 2.035ZM23.64 20.052a31.307 31.307 0 0 0-.236 2.055H21.62l.15-1.281h-.017c-.56.87-1.138 1.463-2.149 1.463-1.12 0-1.728-1.179-1.728-2.719 0-.53.033-.83.151-1.659l.506-3.668h1.987l-.533 3.68c-.054.394-.13.786-.13 1.195 0 .464.211.933.747.905.814 0 1.295-.996 1.432-2.158l.548-3.623h1.924l-.866 5.81ZM61.068 22.011h-.3v-1.314h-.434v-.282h1.169v.282h-.435v1.314ZM63.06 22.011h-.28v-1.334h-.005l-.268 1.334h-.294l-.262-1.334h-.004v1.334h-.28v-1.596h.438l.26 1.258h.005l.256-1.258h.434v1.596Z" clip-rule="evenodd"/>
</svg>
